<svg height='300px' width='300px'  fill="#000000" xmlns="http://www.w3.org/2000/svg" xmlns:xlink="http://www.w3.org/1999/xlink" viewBox="0 0 36 66" version="1.1" x="0px" y="0px"><title>broken</title><desc>Created with Sketch.</desc><g stroke="none" stroke-width="1" fill="none" fill-rule="evenodd"><g fill="#000000"><path d="M29.12,62.668 L6.685,62.668 C4.755,62.668 3.185,61.097 3.185,59.168 L3.185,55.63 L32.62,55.63 L32.62,59.168 C32.62,61.097 31.05,62.668 29.12,62.668 Z M6.685,3.832 L29.12,3.832 C31.05,3.832 32.62,5.402 32.62,7.332 L32.62,9.78 L3.185,9.78 L3.185,7.332 C3.185,5.402 4.755,3.832 6.685,3.832 Z M29.521,37.083 L23.833,41.01 L18.678,32.67 L27.735,30.588 L26.418,19.238 L32.62,14.127 L32.62,45.23 L29.521,37.083 Z M16.874,45.025 L17.473,36.427 L22.94,45.273 L28.077,41.725 L32.225,52.63 L6.465,52.63 L16.874,45.025 Z M12.983,20.483 L7.872,25.672 L13.971,31.52 L8.295,35.662 L3.185,32.424 L3.185,13.858 L12.983,20.483 Z M3.185,35.976 L8.414,39.289 L14.58,34.789 L13.978,43.425 L3.185,51.312 L3.185,35.976 Z M24.446,28.266 L16.754,30.033 L12.144,25.611 L17.653,20.018 L6.946,12.78 L29.537,12.78 L23.25,17.962 L24.446,28.266 Z M29.12,0.832 L6.685,0.832 C3.101,0.832 0.185,3.748 0.185,7.332 L0.185,59.168 C0.185,62.752 3.101,65.668 6.685,65.668 L29.12,65.668 C32.704,65.668 35.62,62.752 35.62,59.168 L35.62,7.332 C35.62,3.748 32.704,0.832 29.12,0.832 L29.12,0.832 Z"></path><path d="M21.596,8.655 C22.421,8.655 23.096,7.98 23.096,7.155 C23.096,6.33 22.421,5.655 21.596,5.655 C20.771,5.655 20.096,6.33 20.096,7.155 C20.096,7.98 20.771,8.655 21.596,8.655"></path><path d="M14.819,8.655 L17.313,8.655 C18.138,8.655 18.813,7.98 18.813,7.155 C18.813,6.33 18.138,5.655 17.313,5.655 L14.819,5.655 C13.994,5.655 13.319,6.33 13.319,7.155 C13.319,7.98 13.994,8.655 14.819,8.655"></path><path d="M19.313,57.655 L16.819,57.655 C15.994,57.655 15.319,58.33 15.319,59.155 C15.319,59.98 15.994,60.655 16.819,60.655 L19.313,60.655 C20.138,60.655 20.813,59.98 20.813,59.155 C20.813,58.33 20.138,57.655 19.313,57.655"></path></g></g></svg>