<svg height='300px' width='300px'  fill="#000000" xmlns="http://www.w3.org/2000/svg" xmlns:xlink="http://www.w3.org/1999/xlink" version="1.1" x="0px" y="0px" viewBox="0 0 512 512" style="enable-background:new 0 0 512 512;" xml:space="preserve"><g><path d="M125.506,216.078H61.631c-5.511,0-9.98,4.47-9.98,9.98v63.875c0,5.511,4.47,9.98,9.98,9.98h63.875   c5.509,0,9.98-4.47,9.98-9.98v-63.875C135.486,220.548,131.015,216.078,125.506,216.078z M115.526,279.953H71.611v-43.914h43.914   V279.953z"></path><path d="M233.793,216.078h-63.875c-5.509,0-9.98,4.47-9.98,9.98v63.875c0,5.511,4.471,9.98,9.98,9.98h63.875   c5.511,0,9.98-4.47,9.98-9.98v-63.875C243.773,220.548,239.303,216.078,233.793,216.078z M223.812,279.953h-43.914v-43.914h43.914   V279.953z"></path><path d="M268.227,226.059v63.875c0,5.511,4.47,9.98,9.98,9.98h63.875c5.509,0,9.98-4.47,9.98-9.98v-63.875   c0-5.511-4.471-9.98-9.98-9.98h-63.875C272.697,216.078,268.227,220.548,268.227,226.059z M288.188,236.039h43.914v43.914h-43.914   V236.039z"></path><path d="M386.494,299.914h63.875c5.511,0,9.98-4.47,9.98-9.98v-63.875c0-5.511-4.47-9.98-9.98-9.98h-63.875   c-5.509,0-9.98,4.47-9.98,9.98v63.875C376.514,295.444,380.985,299.914,386.494,299.914z M396.474,236.039h43.914v43.914h-43.914   V236.039z"></path><path d="M125.506,323.867H61.631c-5.511,0-9.98,4.47-9.98,9.98v63.875c0,5.511,4.47,9.98,9.98,9.98h63.875   c5.509,0,9.98-4.47,9.98-9.98v-63.875C135.486,328.337,131.015,323.867,125.506,323.867z M115.526,387.742H71.611v-43.914h43.914   V387.742z"></path><path d="M233.793,323.867h-63.875c-5.509,0-9.98,4.47-9.98,9.98v63.875c0,5.511,4.471,9.98,9.98,9.98h63.875   c5.511,0,9.98-4.47,9.98-9.98v-63.875C243.773,328.337,239.303,323.867,233.793,323.867z M223.812,387.742h-43.914v-43.914h43.914   V387.742z"></path><path d="M342.082,323.867h-63.875c-5.511,0-9.98,4.47-9.98,9.98v63.875c0,5.511,4.47,9.98,9.98,9.98h63.875   c5.509,0,9.98-4.47,9.98-9.98v-63.875C352.063,328.337,347.591,323.867,342.082,323.867z M332.102,387.742h-43.914v-43.914h43.914   V387.742z"></path><path d="M386.494,407.703h63.875c5.511,0,9.98-4.47,9.98-9.98v-63.875c0-5.511-4.47-9.98-9.98-9.98h-63.875   c-5.509,0-9.98,4.47-9.98,9.98v63.875C376.514,403.233,380.985,407.703,386.494,407.703z M396.474,343.828h43.914v43.914h-43.914   V343.828z"></path><path d="M461.598,40.422h-45.91v-7.984c0-17.611-14.327-31.938-31.938-31.938s-31.938,14.327-31.938,31.938v7.984H160.188v-7.984   c0-17.611-14.327-31.938-31.938-31.938S96.313,14.827,96.313,32.438v7.984h-45.91C22.888,40.422,0.5,62.81,0.5,90.324v351.313   c0,13.01,8.344,24.103,19.961,28.226v11.696c0,16.509,13.432,29.941,29.941,29.941h411.195c16.509,0,29.941-13.432,29.941-29.941   v-11.696c11.617-4.123,19.961-15.216,19.961-28.226V90.324C511.5,62.81,489.112,40.422,461.598,40.422z M371.773,32.438   c0-6.602,5.375-11.977,11.977-11.977s11.977,5.375,11.977,11.977v35.93c0,6.602-5.375,11.977-11.977,11.977   s-11.977-5.375-11.977-11.977V32.438z M116.273,32.438c0-6.602,5.375-11.977,11.977-11.977s11.977,5.375,11.977,11.977v35.93   c0,6.602-5.375,11.977-11.977,11.977s-11.977-5.375-11.977-11.977V32.438z M471.578,481.559c0,5.505-4.475,9.98-9.98,9.98H50.402   c-5.505,0-9.98-4.475-9.98-9.98v-9.98h431.156V481.559z M491.539,441.637c0,5.505-4.475,9.98-9.98,9.98H30.441   c-5.505,0-9.98-4.475-9.98-9.98V172.164h234.278c0.502,0.079,1.01,0.13,1.521,0.13c0.511,0,1.019-0.052,1.521-0.13h43.391h26.174   h164.193V441.637z M491.539,152.203H327.346h-26.174H20.461V90.324c0-16.509,13.432-29.941,29.941-29.941h45.91v7.984   c0,17.611,14.327,31.938,31.938,31.938s31.938-14.327,31.938-31.938v-7.984h191.625v7.984c0,17.611,14.327,31.938,31.938,31.938   s31.938-14.327,31.938-31.938v-7.984h45.91c16.509,0,29.941,13.432,29.941,29.941V152.203z"></path></g></svg>